# xmcd
#
# Track frame offsets: 
#        150
#        16585
#        28042
#        47005
#        59490
#        70195
#        83702
#        99445
#        110942
#        124477
#        139535
#
# Disc length: 2038 seconds
#
# Revision: 4
# Processed by: cddbd v1.5.2PL0 Copyright (c) Steve Scherf et al.
# Submitted via: ExactAudioCopy v0.99pb5
#
DISCID=9307f40b
DTITLE=Waylon Jennings - Greatest Hits
DYEAR=1979
DGENRE=Country
TTITLE0=Lonesome, On'ry And Mean
TTITLE1=Ladies Love Outlaws
TTITLE2=I've Always Been Crazy
TTITLE3=I'm A Ramblin' Man
TTITLE4=Only Daddy That'll  Walk The Line
TTITLE5=Amanda
TTITLE6=Honky Tonk Heroes
TTITLE7=Mammas Don't Let Your Babies Grow Up To Be Cowboys
TTITLE8=Good Hearted Woman
TTITLE9=Luckenbach Texas
TTITLE10=Are You Sure Hank Done It This Way
EXTD=
EXTT0=
EXTT1=
EXTT2=
EXTT3=
EXTT4=
EXTT5=
EXTT6=
EXTT7=
EXTT8=
EXTT9=
EXTT10=
PLAYORDER=
